G04*
G04 #@! TF.GenerationSoftware,Altium Limited,Altium Designer,22.0.2 (36)*
G04*
G04 Layer_Color=8421504*
%FSLAX24Y24*%
%MOIN*%
G70*
G04*
G04 #@! TF.SameCoordinates,F93A8220-4364-4606-9885-C94A037A3EBD*
G04*
G04*
G04 #@! TF.FilePolarity,Positive*
G04*
G01*
G75*
%ADD10O,0.0240X0.0600*%
%ADD11R,0.0315X0.0378*%
%ADD12R,0.0748X0.0945*%
%ADD13R,0.1181X0.0600*%
%ADD14R,0.0378X0.0315*%
%ADD15R,0.0300X0.0240*%
%ADD16R,0.0256X0.0591*%
%ADD17O,0.0098X0.0315*%
%ADD18O,0.0315X0.0098*%
%ADD19R,0.0787X0.0787*%
%ADD20R,0.0433X0.0610*%
%ADD21R,0.0433X0.0610*%
%ADD22R,0.1358X0.0610*%
%ADD23R,0.1122X0.0886*%
%ADD24R,0.0472X0.0256*%
G04:AMPARAMS|DCode=25|XSize=37.8mil|YSize=31.5mil|CornerRadius=0mil|HoleSize=0mil|Usage=FLASHONLY|Rotation=315.000|XOffset=0mil|YOffset=0mil|HoleType=Round|Shape=Rectangle|*
%AMROTATEDRECTD25*
4,1,4,-0.0245,0.0022,-0.0022,0.0245,0.0245,-0.0022,0.0022,-0.0245,-0.0245,0.0022,0.0*
%
%ADD25ROTATEDRECTD25*%

%ADD26R,0.0669X0.0118*%
D10*
X6340Y-10850D02*
D03*
X5840D02*
D03*
X5340D02*
D03*
X4840D02*
D03*
Y-12850D02*
D03*
X5340D02*
D03*
X5840D02*
D03*
X6340D02*
D03*
X9660D02*
D03*
X9160D02*
D03*
X8660D02*
D03*
X8160D02*
D03*
Y-10850D02*
D03*
X8660D02*
D03*
X9160D02*
D03*
X9660D02*
D03*
D11*
X5901Y-13900D02*
D03*
X5279D02*
D03*
X-6596Y-14100D02*
D03*
X-5974D02*
D03*
X-3374D02*
D03*
X-3996D02*
D03*
X-4674Y-11750D02*
D03*
X-5296D02*
D03*
X8599Y-13900D02*
D03*
X9221D02*
D03*
X12049Y2471D02*
D03*
X12671D02*
D03*
X11372D02*
D03*
X10750D02*
D03*
X12049Y1732D02*
D03*
X12671D02*
D03*
X11372Y993D02*
D03*
X10750D02*
D03*
X12049D02*
D03*
X12671D02*
D03*
X11372Y1732D02*
D03*
X10750D02*
D03*
X-13750Y-5211D02*
D03*
X-14372D02*
D03*
X8599Y-9805D02*
D03*
X9221D02*
D03*
X5901D02*
D03*
X5279D02*
D03*
X-6500Y10400D02*
D03*
X-5878D02*
D03*
X-7800D02*
D03*
X-7178D02*
D03*
X-16289Y16700D02*
D03*
X-16911D02*
D03*
X-9111Y10400D02*
D03*
X-8489D02*
D03*
X-14372Y-5950D02*
D03*
X-13750D02*
D03*
D12*
X-4178Y-12850D02*
D03*
X-5793D02*
D03*
D13*
X-2866Y475D02*
D03*
Y1475D02*
D03*
Y2475D02*
D03*
Y3525D02*
D03*
D14*
X-12850Y-5339D02*
D03*
Y-5961D02*
D03*
X9585Y7170D02*
D03*
Y7793D02*
D03*
X10520Y7170D02*
D03*
Y7793D02*
D03*
X-11011Y-4662D02*
D03*
Y-4040D02*
D03*
Y-5339D02*
D03*
Y-5961D02*
D03*
X-11750Y-4662D02*
D03*
Y-4040D02*
D03*
Y-5339D02*
D03*
Y-5961D02*
D03*
X-9939Y-10150D02*
D03*
Y-10772D02*
D03*
X-8461Y-10772D02*
D03*
Y-10150D02*
D03*
X-5100Y7811D02*
D03*
Y7189D02*
D03*
Y9522D02*
D03*
Y8900D02*
D03*
X-10500Y4489D02*
D03*
Y5111D02*
D03*
Y6722D02*
D03*
Y6100D02*
D03*
X-9950Y-12750D02*
D03*
Y-12128D02*
D03*
X-9939Y-8578D02*
D03*
Y-9200D02*
D03*
X-4050Y-7728D02*
D03*
Y-8350D02*
D03*
X-18150Y-15189D02*
D03*
Y-15811D02*
D03*
X-17411Y-15189D02*
D03*
Y-15811D02*
D03*
X-9211Y-12750D02*
D03*
Y-12128D02*
D03*
X-9200Y-8578D02*
D03*
Y-9200D02*
D03*
Y-10772D02*
D03*
Y-10150D02*
D03*
X-7200Y-12750D02*
D03*
Y-12128D02*
D03*
X-4050Y-6389D02*
D03*
Y-7011D02*
D03*
D15*
X11315Y7890D02*
D03*
Y7130D02*
D03*
X12255Y7510D02*
D03*
D16*
X-6000Y7296D02*
D03*
X-6500D02*
D03*
X-7000D02*
D03*
X-7500D02*
D03*
X-8000D02*
D03*
X-8500D02*
D03*
X-9000D02*
D03*
X-9500D02*
D03*
Y9422D02*
D03*
X-9000D02*
D03*
X-8500D02*
D03*
X-8000D02*
D03*
X-7500D02*
D03*
X-7000D02*
D03*
X-6500D02*
D03*
X-6000D02*
D03*
D17*
X-5674Y-10633D02*
D03*
X-5478D02*
D03*
X-5281D02*
D03*
X-5084D02*
D03*
X-4887D02*
D03*
X-4690D02*
D03*
Y-9098D02*
D03*
X-4887D02*
D03*
X-5084D02*
D03*
X-5281D02*
D03*
X-5478D02*
D03*
X-5674D02*
D03*
D18*
X-4415Y-10358D02*
D03*
Y-10161D02*
D03*
Y-9964D02*
D03*
Y-9767D02*
D03*
Y-9570D02*
D03*
Y-9373D02*
D03*
X-5950D02*
D03*
Y-9570D02*
D03*
Y-9767D02*
D03*
Y-9964D02*
D03*
Y-10161D02*
D03*
Y-10358D02*
D03*
D19*
X-5182Y-9866D02*
D03*
D20*
X-13706Y-4300D02*
D03*
X-12800D02*
D03*
D21*
X-14611Y-4300D02*
D03*
D22*
X-13706Y-1643D02*
D03*
D23*
X-18009Y15100D02*
D03*
X-16691D02*
D03*
D24*
X-11650Y4377D02*
D03*
Y5223D02*
D03*
X-13284D02*
D03*
Y4377D02*
D03*
Y6834D02*
D03*
Y5988D02*
D03*
X-11650D02*
D03*
Y6834D02*
D03*
D25*
X-7330Y-10380D02*
D03*
X-7770Y-10820D02*
D03*
D26*
X-7050Y4567D02*
D03*
X-8900Y-4567D02*
D03*
Y-4252D02*
D03*
Y-3937D02*
D03*
Y-3622D02*
D03*
Y-3307D02*
D03*
Y-2992D02*
D03*
Y-2677D02*
D03*
Y-2362D02*
D03*
Y-2047D02*
D03*
Y-1732D02*
D03*
Y-1417D02*
D03*
Y-1102D02*
D03*
Y-787D02*
D03*
Y-472D02*
D03*
Y-157D02*
D03*
Y157D02*
D03*
Y472D02*
D03*
Y787D02*
D03*
Y1102D02*
D03*
Y1417D02*
D03*
Y1732D02*
D03*
Y2047D02*
D03*
Y2362D02*
D03*
Y2677D02*
D03*
Y2992D02*
D03*
Y3307D02*
D03*
Y3622D02*
D03*
Y3937D02*
D03*
Y4252D02*
D03*
Y4567D02*
D03*
X-7050Y4252D02*
D03*
Y3937D02*
D03*
Y3622D02*
D03*
Y3307D02*
D03*
Y2992D02*
D03*
Y2677D02*
D03*
Y2362D02*
D03*
Y2047D02*
D03*
Y1732D02*
D03*
Y1417D02*
D03*
Y1102D02*
D03*
Y787D02*
D03*
Y472D02*
D03*
Y157D02*
D03*
Y-157D02*
D03*
Y-472D02*
D03*
Y-787D02*
D03*
Y-1102D02*
D03*
Y-1417D02*
D03*
Y-1732D02*
D03*
Y-2047D02*
D03*
Y-2362D02*
D03*
Y-2677D02*
D03*
Y-2992D02*
D03*
Y-3307D02*
D03*
Y-3622D02*
D03*
Y-3937D02*
D03*
Y-4252D02*
D03*
Y-4567D02*
D03*
X8900Y4567D02*
D03*
X7050Y-4567D02*
D03*
Y-4252D02*
D03*
Y-3937D02*
D03*
Y-3622D02*
D03*
Y-3307D02*
D03*
Y-2992D02*
D03*
Y-2677D02*
D03*
Y-2362D02*
D03*
Y-2047D02*
D03*
Y-1732D02*
D03*
Y-1417D02*
D03*
Y-1102D02*
D03*
Y-787D02*
D03*
Y-472D02*
D03*
Y-157D02*
D03*
Y157D02*
D03*
Y472D02*
D03*
Y787D02*
D03*
Y1102D02*
D03*
Y1417D02*
D03*
Y1732D02*
D03*
Y2047D02*
D03*
Y2362D02*
D03*
Y2677D02*
D03*
Y2992D02*
D03*
Y3307D02*
D03*
Y3622D02*
D03*
Y3937D02*
D03*
Y4252D02*
D03*
Y4567D02*
D03*
X8900Y4252D02*
D03*
Y3937D02*
D03*
Y3622D02*
D03*
Y3307D02*
D03*
Y2992D02*
D03*
Y2677D02*
D03*
Y2362D02*
D03*
Y2047D02*
D03*
Y1732D02*
D03*
Y1417D02*
D03*
Y1102D02*
D03*
Y787D02*
D03*
Y472D02*
D03*
Y157D02*
D03*
Y-157D02*
D03*
Y-472D02*
D03*
Y-787D02*
D03*
Y-1102D02*
D03*
Y-1417D02*
D03*
Y-1732D02*
D03*
Y-2047D02*
D03*
Y-2362D02*
D03*
Y-2677D02*
D03*
Y-2992D02*
D03*
Y-3307D02*
D03*
Y-3622D02*
D03*
Y-3937D02*
D03*
Y-4252D02*
D03*
Y-4567D02*
D03*
M02*
